<?xml version="1.0" encoding="utf-8"?>
<!-- Generator: Adobe Illustrator 22.0.1, SVG Export Plug-In . SVG Version: 6.00 Build 0)  -->
<svg version="1.1" xmlns="http://www.w3.org/2000/svg" xmlns:xlink="http://www.w3.org/1999/xlink" x="0px" y="0px"
	 viewBox="0 0 666.4 143.2" style="enable-background:new 0 0 666.4 143.2;" xml:space="preserve">
<style type="text/css">
	.st0{display:none;}
	.st1{display:inline;}
	.st2{fill:#2F0E35;}
	.st3{fill:url(#);}
	.st4{fill:#34134C;}
	.st5{opacity:0.4;fill:url(#);}
	.st6{display:inline;opacity:0.39;}
	.st7{fill-rule:evenodd;clip-rule:evenodd;fill:#E0DAFF;}
	.st8{display:inline;fill:none;stroke:#DADADA;stroke-width:221;stroke-miterlimit:10;}
	.st9{fill:url(#SVGID_1_);}
	.st10{opacity:0.74;fill:url(#SVGID_2_);}
	.st11{fill:url(#SVGID_3_);}
	.st12{opacity:0.74;fill:url(#SVGID_4_);}
	.st13{fill:url(#SVGID_5_);}
	.st14{opacity:0.74;fill:url(#SVGID_6_);}
	.st15{fill-rule:evenodd;clip-rule:evenodd;fill:#FFDE00;}
	.st16{opacity:0.85;}
	.st17{fill:none;stroke:#000000;stroke-width:106;stroke-miterlimit:10;}
	.st18{fill:none;stroke:#FFC500;stroke-width:106;stroke-miterlimit:10;}
	.st19{fill-rule:evenodd;clip-rule:evenodd;fill:#FFFB04;}
	.st20{fill-rule:evenodd;clip-rule:evenodd;fill:#FFC500;}
	.st21{clip-path:url(#SVGID_8_);}
	.st22{fill-rule:evenodd;clip-rule:evenodd;fill:#1D1D1B;}
	.st23{fill:#96C11E;}
	.st24{fill:#5EB34B;}
	.st25{fill:#80BB28;}
	.st26{fill:#6CB754;}
	.st27{fill:#5CB130;}
	.st28{fill:#3DA835;}
	.st29{fill:#77B62A;}
	.st30{fill:#9BC11C;}
	.st31{fill:#8CB724;}
	.st32{fill:#A5C715;}
	.st33{fill:#ACC90F;}
	.st34{fill:#B7CD04;}
	.st35{fill:#8FBF27;}
	.st36{fill:#6DB52E;}
	.st37{fill:#BFD000;}
	.st38{fill:#B2CB0F;}
	.st39{fill:#9EC420;}
	.st40{fill:#A1BE1B;}
	.st41{fill:#C3D200;}
	.st42{fill:#CCD500;}
	.st43{fill:#DBDA00;}
	.st44{fill:#C6D300;}
	.st45{fill:#D5D900;}
	.st46{fill:#E1DE00;}
	.st47{fill:#BBCF03;}
	.st48{fill:#F2E400;}
	.st49{fill:#E3DD00;}
	.st50{fill:#CED600;}
	.st51{fill:#F6E42D;}
	.st52{fill:#E7E000;}
	.st53{fill:#68AB2F;}
	.st54{fill:#FAEA41;}
	.st55{fill:#73B844;}
	.st56{fill:#BCCF17;}
	.st57{fill:#B2C20F;}
	.st58{fill:#C9C300;}
	.st59{fill:#B8C00C;}
	.st60{fill:#D2C800;}
	.st61{fill:#ACC313;}
	.st62{fill:#DCDC00;}
	.st63{fill:#EDE300;}
	.st64{fill:#F9E800;}
	.st65{fill:#FCE900;}
	.st66{fill:#C3DAD1;}
	.st67{fill:#D1D93C;}
	.st68{fill:#C0D455;}
	.st69{fill:#B8CB01;}
	.st70{fill:#C7CF00;}
	.st71{fill:#C2D000;}
	.st72{fill:#D5D400;}
	.st73{fill:#DDD500;}
	.st74{fill:#FDD600;}
	.st75{fill:#DFBC00;}
	.st76{fill:#F2E000;}
	.st77{fill:#E7DD00;}
	.st78{fill:#EDDC00;}
	.st79{fill:#FFCD00;}
	.st80{fill:#C1C700;}
	.st81{fill:#C5D31B;}
	.st82{fill:#DAD100;}
	.st83{fill:#E6C800;}
	.st84{fill:#F5D700;}
	.st85{fill:#F9D600;}
	.st86{fill:#F7DD00;}
	.st87{fill:#CFD70A;}
	.st88{fill:#E2E148;}
	.st89{fill:#DCCA00;}
	.st90{fill:#B8CF3C;}
	.st91{fill:#AEB817;}
	.st92{fill:#FADE00;}
	.st93{fill:#FFD600;}
	.st94{fill:#FFDD00;}
	.st95{fill:#FAC500;}
	.st96{fill:#EEC800;}
	.st97{fill:#E4D500;}
	.st98{fill:#D2DC63;}
	.st99{fill:#FFE900;}
	.st100{fill:#FFE500;}
	.st101{fill:#DEDD1C;}
	.st102{fill:#F7E300;}
	.st103{fill:#F8E800;}
	.st104{fill:#A0C85D;}
	.st105{fill:#B6CD19;}
	.st106{fill:#C3D201;}
	.st107{fill:#F7E700;}
	.st108{fill:#FAE400;}
	.st109{fill:#FFE400;}
	.st110{fill:#FFDE00;}
	.st111{fill:#C11EAE;}
	.st112{fill:#B34B66;}
	.st113{fill:#BB2893;}
	.st114{fill:#B75474;}
	.st115{fill:#B13068;}
	.st116{fill:#A83846;}
	.st117{fill:#B62A88;}
	.st118{fill:#C11CB4;}
	.st119{fill:#B724A1;}
	.st120{fill:#C715C1;}
	.st121{fill:#C80FC9;}
	.st122{fill:#C104CD;}
	.st123{fill:#BF27A5;}
	.st124{fill:#B52E7C;}
	.st125{fill:#BD00D0;}
	.st126{fill:#C50FCB;}
	.st127{fill:#C420B7;}
	.st128{fill:#BE1BBB;}
	.st129{fill:#BC00D2;}
	.st130{fill:#B800D5;}
	.st131{fill:#AF00DB;}
	.st132{fill:#BB00D3;}
	.st133{fill:#B600D9;}
	.st134{fill:#AD00E1;}
	.st135{fill:#C003CF;}
	.st136{fill:#9600F2;}
	.st137{fill:#A500E3;}
	.st138{fill:#B800D6;}
	.st139{fill:#9A2DF6;}
	.st140{fill:#A500E7;}
	.st141{fill:#AB2F76;}
	.st142{fill:#A641FA;}
	.st143{fill:#B8447F;}
	.st144{fill:#C317CF;}
	.st145{fill:#B30FC2;}
	.st146{fill:#9000C9;}
	.st147{fill:#A80CC0;}
	.st148{fill:#8900D2;}
	.st149{fill:#BD13C3;}
	.st150{fill:#B400DC;}
	.st151{fill:#9F00ED;}
	.st152{fill:#9100F9;}
	.st153{fill:#9000FC;}
	.st154{fill:#DAC8C3;}
	.st155{fill:#C53CD9;}
	.st156{fill:#D355D4;}
	.st157{fill:#BB01CB;}
	.st158{fill:#B200CF;}
	.st159{fill:#BA00D0;}
	.st160{fill:#AA00D5;}
	.st161{fill:#9900DD;}
	.st162{fill:#6800FD;}
	.st163{fill:#5B00DF;}
	.st164{fill:#8A00F2;}
	.st165{fill:#9B00E7;}
	.st166{fill:#8900ED;}
	.st167{fill:#5400FF;}
	.st168{fill:#A900C7;}
	.st169{fill:#C11BD3;}
	.st170{fill:#9300DA;}
	.st171{fill:#6A00E6;}
	.st172{fill:#7400F5;}
	.st173{fill:#6D00F9;}
	.st174{fill:#7E00F7;}
	.st175{fill:#BA0AD7;}
	.st176{fill:#C248E2;}
	.st177{fill:#7A00DC;}
	.st178{fill:#CE3CCF;}
	.st179{fill:#A617B8;}
	.st180{fill:#7C00FA;}
	.st181{fill:#6600FF;}
	.st182{fill:#7400FF;}
	.st183{fill:#3F00FA;}
	.st184{fill:#5F00EE;}
	.st185{fill:#8700E4;}
	.st186{fill:#D163DC;}
	.st187{fill:#8C00FF;}
	.st188{fill:#8400FF;}
	.st189{fill:#B71CDE;}
	.st190{fill:#8A00F7;}
	.st191{fill:#9400F8;}
	.st192{fill:#C85DAE;}
	.st193{fill:#C619CD;}
	.st194{fill:#BD01D2;}
	.st195{fill:#9300F7;}
	.st196{fill:#8800FA;}
	.st197{fill:#8200FF;}
	.st198{fill:#7600FF;}
	.st199{fill-rule:evenodd;clip-rule:evenodd;fill:#FFED00;}
	.st200{fill:#B66A8E;}
	.st201{fill:#AC4D60;}
	.st202{fill:#77476C;}
	.st203{fill:#7A73B3;}
	.st204{fill:#734831;}
	.st205{fill:#7F3B33;}
	.st206{fill:#755086;}
	.st207{fill:#885C78;}
	.st208{fill:#BC3924;}
	.st209{fill:#944046;}
	.st210{fill:#8F3E2F;}
	.st211{fill:#7E371F;}
	.st212{fill:#8E351E;}
	.st213{fill:#603B35;}
	.st214{fill:#9B3A29;}
	.st215{fill:#703517;}
	.st216{fill:#5F3625;}
	.st217{fill:#503F6A;}
	.st218{fill:#6E3722;}
	.st219{fill:#6F3B35;}
	.st220{fill:#7D2811;}
	.st221{fill:#EA5431;}
	.st222{fill:#7D291D;}
	.st223{fill:#6D2C20;}
	.st224{fill:#51362A;}
	.st225{fill:#564255;}
	.st226{fill:#982F16;}
	.st227{fill:#8D281B;}
	.st228{fill:#8D3214;}
	.st229{fill:#AC3627;}
	.st230{fill:#EB5E1B;}
	.st231{fill:#AC3F20;}
	.st232{fill:#8E2514;}
	.st233{fill:#D13A17;}
	.st234{fill:#41362B;}
	.st235{fill:#4B2E34;}
	.st236{fill:#5E2E22;}
	.st237{fill:#D14140;}
	.st238{fill:#7E3313;}
	.st239{fill:#E64217;}
	.st240{fill:#AE2418;}
	.st241{fill:#4F3A4B;}
	.st242{fill:#4E2E26;}
	.st243{fill:#B52518;}
	.st244{fill:#A72417;}
	.st245{fill:#4D3836;}
	.st246{fill:#AB2F17;}
	.st247{fill:#E84B19;}
	.st248{fill:#5A2E2B;}
	.st249{fill:#3C3346;}
	.st250{fill:#BC2318;}
	.st251{fill:#3E2D37;}
	.st252{fill:#393354;}
	.st253{fill:#C72218;}
	.st254{fill:#9E2418;}
	.st255{fill:#9D3017;}
	.st256{fill:#6D2A16;}
	.st257{fill:#982415;}
	.st258{fill:#B92E18;}
	.st259{fill:#C82A18;}
	.st260{fill:#C83625;}
	.st261{fill:#5F2D1A;}
	.st262{fill:#E22D13;}
	.st263{fill:#E43712;}
	.st264{fill:#D73628;}
	.st265{fill:#402C2A;}
	.st266{fill:#D62C16;}
	.st267{fill:#A71C17;}
	.st268{fill:#754350;}
	.st269{fill:#482C1B;}
	.st270{fill:#3F3538;}
	.st271{fill:#AD1C18;}
	.st272{fill:#303247;}
	.st273{fill:#3A2A43;}
	.st274{fill:#30327D;}
	.st275{fill:#6856A0;}
	.st276{fill:#2E3052;}
	.st277{fill:#6F99D0;}
	.st278{fill:#585996;}
	.st279{fill:#5165AD;}
	.st280{fill:#4F80C1;}
	.st281{fill:#484A9A;}
	.st282{fill:#31353A;}
	.st283{fill:#BC1B18;}
	.st284{fill:#38396D;}
	.st285{fill:#3F463A;}
	.st286{fill:#323063;}
	.st287{fill:#383A8C;}
	.st288{fill:#302A45;}
	.st289{fill:#372951;}
	.st290{fill:#49377E;}
	.st291{fill:#E54930;}
	.st292{fill:#4F4587;}
	.st293{fill:#6E2A38;}
	.st294{fill:#CE5335;}
	.st295{fill:#575C5A;}
	.st296{fill:#E13D28;}
	.st297{fill:#845D50;}
	.st298{fill:#312C3A;}
	.st299{fill:#E73E2A;}
	.st300{fill:#E73E18;}
	.st301{fill:#F8DFAB;}
	.st302{fill:#B41D18;}
	.st303{fill:#2E294F;}
	.st304{fill:#616074;}
	.st305{fill:#922F2B;}
	.st306{fill:#818A87;}
	.st307{fill:url(#SVGID_9_);}
	.st308{opacity:0.74;fill:url(#SVGID_10_);}
	.st309{fill:url(#SVGID_11_);}
	.st310{opacity:0.74;fill:url(#SVGID_12_);}
	.st311{fill:url(#SVGID_13_);}
	.st312{opacity:0.74;fill:url(#SVGID_14_);}
	.st313{clip-path:url(#SVGID_16_);}
	.st314{fill:#BFD00F;}
	.st315{fill:#409B36;}
	.st316{fill:#75AC2C;}
	.st317{fill:url(#SVGID_17_);}
	.st318{fill:url(#SVGID_18_);}
	.st319{fill:url(#SVGID_19_);}
	.st320{fill:url(#SVGID_20_);}
	.st321{fill:url(#SVGID_21_);}
	.st322{fill:url(#SVGID_22_);}
	.st323{fill:url(#SVGID_23_);}
	.st324{fill:#FCEA10;}
	.st325{fill:#FFFFFF;}
	.st326{fill:url(#SVGID_24_);}
	.st327{fill-rule:evenodd;clip-rule:evenodd;fill:#FFFFFF;}
	.st328{fill:#FFFFFF;stroke:url(#SVGID_25_);stroke-width:10;stroke-miterlimit:10;}
	.st329{fill:#B11625;}
	.st330{fill-rule:evenodd;clip-rule:evenodd;fill:#6F1444;}
	.st331{fill:#6F1444;}
	.st332{fill:url(#SVGID_26_);}
	.st333{fill:#7D2A31;}
	.st334{fill:#E9D990;}
	.st335{fill:#FFDF94;}
	.st336{fill:#E6B700;}
	.st337{fill:#FCD468;}
	.st338{fill:#EAC43D;}
	.st339{fill:#DAB506;}
	.st340{fill:#DCBE33;}
	.st341{fill:#D8B200;}
	.st342{fill:#E3BC1F;}
	.st343{fill:#D1B000;}
	.st344{fill:#EACE64;}
	.st345{fill:#DFB400;}
	.st346{fill:#F4BA02;}
	.st347{fill:#F9CA44;}
	.st348{fill:#F1B50D;}
	.st349{fill:#CEB106;}
	.st350{fill:#CBB10F;}
	.st351{fill:#D4B100;}
	.st352{fill:#C6B218;}
	.st353{fill:#C0B323;}
	.st354{fill:#E4B500;}
	.st355{fill:#DAC75D;}
	.st356{fill:#D5BA29;}
	.st357{fill:#DDD18A;}
	.st358{fill:#4605BE;}
	.st359{fill:#5104AE;}
	.st360{fill:#4E04B0;}
	.st361{fill:#6D33AE;}
	.st362{fill:#5404A7;}
	.st363{fill:#5304A9;}
	.st364{fill:#5204AB;}
	.st365{fill:#5807A4;}
	.st366{fill:#5404A8;}
	.st367{fill:#4205C2;}
	.st368{fill:#5F10A1;}
	.st369{fill:#5706A6;}
	.st370{fill:#4C04AB;}
	.st371{fill:#4004A1;}
	.st372{fill:#4404B1;}
	.st373{fill:#1F05CB;}
	.st374{fill:#5D10A3;}
	.st375{fill:#6A1D9D;}
	.st376{fill:#5304A7;}
	.st377{fill:#1B04B3;}
	.st378{fill:#3B05C2;}
	.st379{fill:#4405B9;}
	.st380{fill:#3C05BE;}
	.st381{fill:#4904B6;}
	.st382{fill:#5004B0;}
	.st383{fill:#0F05CD;}
	.st384{fill:#6D1B9B;}
	.st385{fill:#822492;}
	.st386{fill:#6314A0;}
	.st387{fill:#671A9B;}
	.st388{fill:#752299;}
	.st389{fill:#4B04A0;}
	.st390{fill:#5405A3;}
	.st391{fill:#4F04A6;}
	.st392{fill:#6019A9;}
	.st393{fill:#55109C;}
	.st394{fill:#4104AF;}
	.st395{fill:#2505B8;}
	.st396{fill:#2A05C4;}
	.st397{fill:#2305C8;}
	.st398{fill:#3105C6;}
	.st399{fill:#5E38C8;}
	.st400{fill:#3E05CA;}
	.st401{fill:#4005C8;}
	.st402{fill:#4D04B4;}
	.st403{fill:#5204AC;}
	.st404{fill:#4905B9;}
	.st405{fill:#560CAC;}
	.st406{fill:#703DB5;}
	.st407{fill:#5B139C;}
	.st408{fill:#4F0D9A;}
	.st409{fill:#3C04A8;}
	.st410{fill:#3304B0;}
	.st411{fill:#7D47AA;}
	.st412{fill:#7133A6;}
	.st413{fill:#521694;}
	.st414{fill:#2F05C8;}
	.st415{fill:#1D05CD;}
	.st416{fill:#2805CD;}
	.st417{fill:#0510C8;}
	.st418{fill:#1B05BF;}
	.st419{fill:#3B05B7;}
	.st420{fill:#7E2396;}
	.st421{fill:#5F16A6;}
	.st422{fill:#8052B0;}
	.st423{fill:#3B05CD;}
	.st424{fill:#3405CD;}
	.st425{fill:#5128C5;}
	.st426{fill:#5B1AB2;}
	.st427{fill:#601998;}
	.st428{fill:#3A05C6;}
	.st429{clip-path:url(#SVGID_28_);}
	.st430{clip-path:url(#SVGID_30_);}
	.st431{clip-path:url(#SVGID_32_);}
	.st432{clip-path:url(#SVGID_34_);}
</style>
<g id="Слой_7" class="st0">
</g>
<g id="Слой_4" class="st0">
</g>
<g id="Слой_3">
	<g id="Слой_2">
	</g>
</g>
<g id="Слой_8">
</g>
<g id="Слой_1">
</g>
<g id="Слой_5__x28_копия_x29_" class="st0">
</g>
<g id="Слой_5" class="st0">
</g>
<g id="Слой_11">
</g>
<g id="Слой_10" class="st0">
</g>
<g id="Слой_6">
</g>
<g id="txt">
</g>
<g id="Слой_13">
	<g>
		<path class="st325" d="M6.8,23.7c0-12.2,0-14.3-0.2-16.8C6.5,4.2,5.8,3,3.3,2.4C2.7,2.3,1.3,2.2,0.6,2.2C0.3,2.2,0,2,0,1.7
			c0-0.5,0.4-0.6,1.2-0.6c3.5,0,8.4,0.2,8.8,0.2c1.9,0,4.9-0.2,8.5-0.2c12.8,0,15.6,7.8,15.6,11.7c0,6.4-3.7,10.2-7.3,14
			c5.8,1.8,13.5,7.3,13.5,16.5c0,8.3-6.5,17-19.9,17c-0.9,0-3.4-0.2-5.6-0.2c-2.3-0.2-4.4-0.2-4.8-0.2c-0.2,0-1.5,0-3.1,0.1
			c-1.6,0-3.4,0.2-4.5,0.2c-0.9,0-1.2-0.2-1.2-0.6c0-0.2,0.2-0.5,0.6-0.5c0.7,0,1.6-0.2,2.3-0.3c1.6-0.3,1.9-2,2.3-4.3
			c0.4-3.3,0.4-9.4,0.4-16.9V23.7z M13,25.4c0,0.5,0.2,0.7,0.5,0.9c0.5,0.1,1.9,0.3,4.8,0.3c4.4,0,5.5-0.2,7.1-2
			c1.6-1.9,2.8-4.7,2.8-7.9c0-6.5-2.9-13.4-10.5-13.4c-0.9,0-2.5,0.1-3.7,0.4C13.3,3.8,13,4.1,13,4.5V25.4z M13,33.7
			c0,6,0,15.7,0.1,16.8c0.2,3.8,0.2,4.9,2.7,6.1c2.1,1,5.5,1.2,6.9,1.2c4.2,0,11-2.3,11-11.1c0-4.7-1.6-11.5-7.6-15.6
			c-2.7-1.8-4.6-2-6.5-2.3c-1-0.2-4.9-0.2-6.1-0.2c-0.3,0-0.5,0.2-0.5,0.5V33.7z"/>
		<path class="st325" d="M71.2,3c0.9-2.6,1.2-3,1.7-3s0.8,0.4,1.7,2.8c1.2,3,13.4,35.2,18.2,47c2.8,6.9,5.1,8.2,6.7,8.7
			c1.2,0.4,2.3,0.5,3.1,0.5c0.5,0,0.8,0.1,0.8,0.5c0,0.5-0.7,0.6-1.6,0.6c-1.2,0-6.9,0-12.2-0.2c-1.5-0.1-2.3-0.1-2.3-0.5
			c0-0.3,0.2-0.5,0.5-0.5c0.5-0.2,0.9-0.9,0.5-2.1L81,37.5c-0.2-0.3-0.3-0.5-0.7-0.5H63.5c-0.4,0-0.6,0.2-0.8,0.6l-4.7,13.8
			c-0.7,1.9-1.1,3.8-1.1,5.2c0,1.6,1.6,2.3,3,2.3h0.8c0.5,0,0.8,0.2,0.8,0.5c0,0.5-0.5,0.6-1.2,0.6c-1.9,0-5.2-0.2-6.1-0.2
			S49.1,60,45.5,60c-1,0-1.5-0.2-1.5-0.6c0-0.3,0.3-0.5,0.7-0.5c0.5,0,1.6-0.1,2.3-0.2c3.6-0.5,5.1-3.4,6.5-7.3L71.2,3z M79.3,34.2
			c0.4,0,0.4-0.2,0.3-0.5l-7.4-21.1c-0.4-1.2-0.8-1.2-1.2,0l-6.9,21.1c-0.2,0.4,0,0.5,0.2,0.5H79.3z"/>
		<path class="st325" d="M121.1,37.6c0,11.5,0.3,16.5,1.7,17.9c1.2,1.2,3.3,1.8,9.4,1.8c4.1,0,7.6-0.1,9.4-2.3c1-1.2,1.8-3.2,2-4.7
			c0.1-0.6,0.2-1,0.7-1c0.4,0,0.5,0.3,0.5,1.2c0,0.9-0.5,5.5-1.2,7.8c-0.5,1.8-0.8,2.1-4.9,2.1c-5.6,0-9.7-0.2-12.9-0.2
			c-3.3-0.2-5.7-0.2-8-0.2c-0.3,0-1.6,0.1-3.2,0.1c-1.6,0.1-3.3,0.2-4.4,0.2c-0.9,0-1.2-0.2-1.2-0.6c0-0.2,0.2-0.5,0.6-0.5
			c0.7,0,1.6-0.2,2.3-0.3c1.6-0.3,1.9-2,2.3-4.3c0.4-3.3,0.4-9.4,0.4-16.9V23.7c0-12.2,0-14.3-0.2-16.8c-0.2-2.7-0.8-3.9-3.4-4.4
			c-0.6-0.2-1.9-0.2-2.7-0.2c-0.3,0-0.6-0.2-0.6-0.5c0-0.5,0.4-0.6,1.2-0.6c3.5,0,8.4,0.2,8.8,0.2c0.4,0,6.1-0.2,8.4-0.2
			c0.9,0,1.2,0.2,1.2,0.6c0,0.3-0.3,0.5-0.6,0.5c-0.5,0-1.6,0.1-2.6,0.2c-2.3,0.4-2.9,1.7-3,4.4c-0.2,2.5-0.2,4.7-0.2,16.8V37.6z"/>
		<path class="st325" d="M172.6,37.4c0,7.5,0,13.6,0.4,16.9c0.2,2.3,0.7,4,3,4.3c1.1,0.2,2.8,0.3,3.5,0.3c0.5,0,0.6,0.2,0.6,0.5
			c0,0.4-0.4,0.6-1.2,0.6c-4.3,0-9.2-0.2-9.6-0.2S164,60,161.7,60c-0.9,0-1.2-0.2-1.2-0.6c0-0.2,0.2-0.5,0.6-0.5
			c0.7,0,1.6-0.2,2.3-0.3c1.6-0.3,1.9-2,2.3-4.3c0.4-3.3,0.4-9.4,0.4-16.9v-33l-11.5,0.2c-4.8,0.1-6.7,0.6-8,2.5
			c-0.9,1.3-1.1,1.9-1.3,2.4c-0.2,0.6-0.5,0.8-0.8,0.8c-0.2,0-0.4-0.2-0.4-0.7c0-0.8,1.6-7.5,1.7-8.1C146,1,146.3,0,146.6,0
			c0.5,0,1.3,0.8,3.4,0.9c2.3,0.2,5.2,0.4,6.2,0.4h29.2c2.5,0,4.3-0.2,5.5-0.4c1.2-0.2,1.9-0.4,2.2-0.4c0.4,0,0.4,0.5,0.4,0.9
			c0,2.3-0.2,7.7-0.2,8.6c0,0.7-0.2,1-0.5,1c-0.4,0-0.5-0.2-0.6-1.3L192,8.9c-0.2-2.3-2.1-4.1-9.6-4.3l-9.8-0.2V37.4z"/>
		<path class="st325" d="M216.4,37.4c0,7.5,0,13.6,0.4,16.9c0.2,2.3,0.7,4,3,4.3c1.1,0.2,2.8,0.3,3.5,0.3c0.5,0,0.6,0.2,0.6,0.5
			c0,0.4-0.4,0.6-1.2,0.6c-4.3,0-9.2-0.2-9.6-0.2c-0.4,0-5.3,0.2-7.6,0.2c-0.9,0-1.2-0.2-1.2-0.6c0-0.2,0.2-0.5,0.6-0.5
			c0.7,0,1.6-0.2,2.3-0.3c1.6-0.3,1.9-2,2.3-4.3c0.4-3.3,0.4-9.4,0.4-16.9V23.7c0-12.2,0-14.3-0.2-16.8c-0.2-2.7-0.9-4-2.7-4.4
			c-0.9-0.2-1.9-0.3-2.4-0.3c-0.3,0-0.6-0.2-0.6-0.5c0-0.5,0.4-0.6,1.2-0.6c2.6,0,7.5,0.2,7.9,0.2c0.4,0,5.3-0.2,7.6-0.2
			c0.9,0,1.2,0.2,1.2,0.6c0,0.3-0.3,0.5-0.6,0.5c-0.5,0-1,0.1-1.9,0.2c-2.1,0.4-2.7,1.7-2.9,4.4c-0.2,2.5-0.2,4.7-0.2,16.8V37.4z"/>
		<path class="st325" d="M243.6,52.7c-7.6-6.8-9.4-15.7-9.4-23.1c0-5.2,1.8-14.3,8.7-21.3c4.7-4.7,11.8-8.3,23.8-8.3
			c3.1,0,7.5,0.2,11.3,0.9c3,0.5,5.5,1,8,1.2c0.9,0.1,1,0.4,1,0.9c0,0.6-0.2,1.6-0.4,4.4c-0.2,2.6-0.2,6.9-0.2,8
			c-0.1,1.2-0.2,1.6-0.7,1.6c-0.5,0-0.6-0.5-0.6-1.6c0-3-1.2-6.2-3.3-8C279,5.1,273,3,266.1,3c-10.4,0-15.2,3-17.9,5.7
			c-5.7,5.5-7,12.4-7,20.4c0,14.9,11.5,28.5,28.1,28.5c5.8,0,10.4-0.7,13.6-3.9c1.6-1.7,2.7-5.1,2.9-6.5c0.2-0.9,0.3-1.2,0.8-1.2
			c0.4,0,0.5,0.5,0.5,1.2c0,0.5-0.9,7.3-1.7,10c-0.5,1.5-0.6,1.6-2,2.3c-3.1,1.2-9,1.8-14,1.8C257.6,61.1,249.7,58.2,243.6,52.7z"/>
		<path class="st325" d="M347.7,37.4c0,7.5,0,13.6,0.4,16.9c0.2,2.3,0.7,4,3,4.3c1.1,0.2,2.8,0.3,3.5,0.3c0.5,0,0.6,0.2,0.6,0.5
			c0,0.4-0.4,0.6-1.2,0.6c-4.3,0-9.2-0.2-9.6-0.2s-5.3,0.2-7.6,0.2c-0.9,0-1.2-0.2-1.2-0.6c0-0.2,0.2-0.5,0.6-0.5
			c0.7,0,1.6-0.2,2.3-0.3c1.6-0.3,1.9-2,2.3-4.3c0.4-3.3,0.4-9.4,0.4-16.9v-33l-11.5,0.2c-4.8,0.1-6.7,0.6-8,2.5
			c-0.9,1.3-1.1,1.9-1.3,2.4c-0.2,0.6-0.5,0.8-0.8,0.8c-0.2,0-0.4-0.2-0.4-0.7c0-0.8,1.6-7.5,1.7-8.1c0.2-0.5,0.5-1.5,0.8-1.5
			c0.5,0,1.3,0.8,3.4,0.9c2.3,0.2,5.2,0.4,6.2,0.4h29.2c2.5,0,4.3-0.2,5.5-0.4c1.2-0.2,1.9-0.4,2.2-0.4c0.4,0,0.4,0.5,0.4,0.9
			c0,2.3-0.2,7.7-0.2,8.6c0,0.7-0.2,1-0.5,1c-0.4,0-0.5-0.2-0.6-1.3l-0.1-0.9c-0.2-2.3-2.1-4.1-9.6-4.3l-9.8-0.2V37.4z"/>
		<path class="st325" d="M392.7,3c0.9-2.6,1.2-3,1.7-3s0.8,0.4,1.7,2.8c1.2,3,13.4,35.2,18.2,47c2.8,6.9,5.1,8.2,6.7,8.7
			c1.2,0.4,2.3,0.5,3.1,0.5c0.5,0,0.8,0.1,0.8,0.5c0,0.5-0.7,0.6-1.6,0.6c-1.2,0-6.9,0-12.2-0.2c-1.5-0.1-2.3-0.1-2.3-0.5
			c0-0.3,0.2-0.5,0.5-0.5c0.5-0.2,0.9-0.9,0.5-2.1l-7.3-19.2c-0.2-0.3-0.3-0.5-0.7-0.5h-16.8c-0.4,0-0.6,0.2-0.8,0.6l-4.7,13.8
			c-0.7,1.9-1.1,3.8-1.1,5.2c0,1.6,1.6,2.3,3,2.3h0.8c0.5,0,0.8,0.2,0.8,0.5c0,0.5-0.5,0.6-1.2,0.6c-1.9,0-5.2-0.2-6.1-0.2
			S370.7,60,367,60c-1,0-1.5-0.2-1.5-0.6c0-0.3,0.3-0.5,0.7-0.5c0.5,0,1.6-0.1,2.3-0.2c3.6-0.5,5.1-3.4,6.5-7.3L392.7,3z
			 M400.8,34.2c0.4,0,0.4-0.2,0.3-0.5l-7.4-21.1c-0.4-1.2-0.8-1.2-1.2,0l-6.9,21.1c-0.2,0.4,0,0.5,0.2,0.5H400.8z"/>
		<path class="st325" d="M438.2,49.4c0.2,6.4,0.9,8.4,3,9c1.5,0.4,3.2,0.5,3.9,0.5c0.4,0,0.6,0.2,0.6,0.5c0,0.5-0.5,0.6-1.4,0.6
			c-4.4,0-7.6-0.2-8.3-0.2c-0.7,0-4,0.2-7.5,0.2c-0.8,0-1.2-0.1-1.2-0.6c0-0.3,0.2-0.5,0.6-0.5c0.6,0,2-0.1,3.2-0.5
			c1.9-0.5,2.3-2.8,2.3-9.9l0.1-44.7c0-3,0.2-3.9,0.9-3.9s1.9,1.7,2.7,2.5c1.2,1.3,12.8,13.9,24.8,26.7c7.7,8.3,16.2,17.8,18.7,20.4
			L479.8,10c-0.1-5.1-0.6-6.8-3-7.4c-1.4-0.3-3.2-0.4-3.8-0.4c-0.5,0-0.6-0.2-0.6-0.5c0-0.5,0.6-0.5,1.6-0.5c3.5,0,7.3,0.2,8.1,0.2
			c0.9,0,3.4-0.2,6.6-0.2c0.9,0,1.4,0.1,1.4,0.5c0,0.3-0.3,0.5-0.9,0.5c-0.4,0-0.9,0-1.9,0.2c-2.6,0.5-2.9,2.3-2.9,6.9L484.3,55
			c0,5.1-0.2,5.5-0.7,5.5c-0.6,0-1.6-0.9-5.7-5c-0.9-0.8-12.1-12.2-20.4-21.1c-9-9.7-17.9-19.6-20.4-22.4L438.2,49.4z"/>
		<path class="st325" d="M526.5,37.4c0,7.5,0,13.6,0.4,16.9c0.2,2.3,0.7,4,3,4.3c1.1,0.2,2.8,0.3,3.5,0.3c0.5,0,0.6,0.2,0.6,0.5
			c0,0.4-0.4,0.6-1.2,0.6c-4.3,0-9.2-0.2-9.6-0.2c-0.4,0-5.3,0.2-7.6,0.2c-0.9,0-1.2-0.2-1.2-0.6c0-0.2,0.2-0.5,0.6-0.5
			c0.7,0,1.6-0.2,2.3-0.3c1.6-0.3,1.9-2,2.3-4.3c0.4-3.3,0.4-9.4,0.4-16.9v-33l-11.5,0.2c-4.8,0.1-6.7,0.6-8,2.5
			c-0.9,1.3-1.1,1.9-1.3,2.4c-0.2,0.6-0.5,0.8-0.8,0.8c-0.2,0-0.4-0.2-0.4-0.7c0-0.8,1.6-7.5,1.7-8.1c0.2-0.5,0.5-1.5,0.8-1.5
			c0.5,0,1.3,0.8,3.4,0.9c2.3,0.2,5.2,0.4,6.2,0.4h29.2c2.5,0,4.3-0.2,5.5-0.4c1.2-0.2,1.9-0.4,2.2-0.4c0.4,0,0.4,0.5,0.4,0.9
			c0,2.3-0.2,7.7-0.2,8.6c0,0.7-0.2,1-0.5,1c-0.4,0-0.5-0.2-0.6-1.3l-0.1-0.9c-0.2-2.3-2.1-4.1-9.6-4.3l-9.8-0.2V37.4z"/>
		<path class="st325" d="M563.8,23.7c0-12.2,0-14.3-0.2-16.8c-0.2-2.7-0.8-3.9-3.4-4.4c-0.6-0.2-1.9-0.2-2.7-0.2
			c-0.3,0-0.6-0.2-0.6-0.5c0-0.5,0.4-0.6,1.2-0.6c3.5,0,8.4,0.2,8.8,0.2c0.9,0,6.8-0.2,9.2-0.2c4.9,0,10.1,0.5,14.3,3.4
			c1.9,1.4,5.4,5.2,5.4,10.6c0,5.8-2.4,11.5-9.4,18c6.4,8.2,11.7,15.1,16.2,20c4.2,4.4,7.6,5.3,9.5,5.6c1.5,0.2,2.6,0.2,3,0.2
			c0.4,0,0.7,0.2,0.7,0.5c0,0.5-0.5,0.6-1.9,0.6h-5.5c-4.4,0-6.3-0.4-8.3-1.5c-3.4-1.8-6.1-5.6-10.5-11.5c-3.3-4.3-6.9-9.5-8.5-11.5
			c-0.3-0.3-0.5-0.5-1-0.5l-9.6-0.2c-0.4,0-0.5,0.2-0.5,0.6v1.9c0,7.5,0,13.6,0.4,16.9c0.2,2.3,0.7,4,3,4.3c1.1,0.2,2.8,0.3,3.5,0.3
			c0.5,0,0.6,0.2,0.6,0.5c0,0.4-0.4,0.6-1.2,0.6c-4.3,0-9.2-0.2-9.6-0.2c-0.1,0-5,0.2-7.3,0.2c-0.9,0-1.2-0.2-1.2-0.6
			c0-0.2,0.2-0.5,0.6-0.5c0.7,0,1.6-0.2,2.3-0.3c1.6-0.3,1.9-2,2.3-4.3c0.4-3.3,0.4-9.4,0.4-16.9V23.7z M570,30.5
			c0,0.4,0.2,0.7,0.5,0.9c1.2,0.7,4.8,1.2,8.2,1.2c1.9,0,4.1-0.2,5.8-1.5c2.7-1.9,4.8-6.1,4.8-12c0-9.7-5.1-15.6-13.5-15.6
			c-2.3,0-4.4,0.2-5.2,0.5C570.2,4.2,570,4.5,570,5V30.5z"/>
		<path class="st325" d="M634.2,3c0.9-2.6,1.2-3,1.7-3s0.8,0.4,1.7,2.8c1.2,3,13.4,35.2,18.2,47c2.8,6.9,5.1,8.2,6.7,8.7
			c1.2,0.4,2.3,0.5,3.1,0.5c0.5,0,0.8,0.1,0.8,0.5c0,0.5-0.7,0.6-1.6,0.6c-1.2,0-6.9,0-12.2-0.2c-1.5-0.1-2.3-0.1-2.3-0.5
			c0-0.3,0.2-0.5,0.5-0.5c0.5-0.2,0.9-0.9,0.5-2.1L644,37.5c-0.2-0.3-0.3-0.5-0.7-0.5h-16.8c-0.4,0-0.6,0.2-0.8,0.6l-4.7,13.8
			c-0.7,1.9-1.1,3.8-1.1,5.2c0,1.6,1.6,2.3,3,2.3h0.8c0.5,0,0.8,0.2,0.8,0.5c0,0.5-0.5,0.6-1.2,0.6c-1.9,0-5.2-0.2-6.1-0.2
			s-5.1,0.2-8.8,0.2c-1,0-1.5-0.2-1.5-0.6c0-0.3,0.3-0.5,0.7-0.5c0.5,0,1.6-0.1,2.3-0.2c3.6-0.5,5.1-3.4,6.5-7.3L634.2,3z
			 M642.3,34.2c0.4,0,0.4-0.2,0.3-0.5l-7.4-21.1c-0.4-1.2-0.8-1.2-1.2,0l-6.9,21.1c-0.2,0.4,0,0.5,0.2,0.5H642.3z"/>
		<path class="st325" d="M165.3,105.7c0-12.2,0-14.3-0.2-16.8c-0.2-2.7-0.8-3.9-3.4-4.4c-0.6-0.2-1.9-0.2-2.7-0.2
			c-0.3,0-0.6-0.2-0.6-0.5c0-0.5,0.4-0.6,1.2-0.6c1.8,0,3.9,0,5.6,0.1l3.2,0.2c1.6,0.1,17.4,0,19.2-0.1c1.5-0.1,2.7-0.1,3.4-0.3
			c0.5-0.2,0.8-0.5,1.1-0.5c0.3,0,0.5,0.3,0.5,0.7c0,0.5-0.4,1.5-0.6,3.7c-0.1,0.8-0.2,4.2-0.4,5.1c-0.1,0.4-0.2,0.9-0.6,0.9
			s-0.5-0.4-0.5-0.9c0-0.6-0.2-1.9-0.7-3s-2.3-2.4-5.3-2.5l-12-0.2c-0.5,0-0.7,0.2-0.7,0.9v21.5c0,0.5,0.1,0.7,0.5,0.7l10-0.1
			c1.3,0,2.4,0,3.5-0.1c1.9-0.2,2.9-0.4,3.6-1.4c0.3-0.4,0.5-0.8,0.9-0.8c0.3,0,0.4,0.2,0.4,0.6c0,0.5-0.4,1.8-0.6,4.4
			c-0.2,1.6-0.3,4.7-0.3,5.2c0,0.7,0,1.5-0.5,1.5c-0.4,0-0.5-0.3-0.5-0.7c-0.1-0.8-0.2-1.9-0.5-2.8c-0.4-1.1-1.6-2.5-4.1-2.8
			c-1.9-0.2-10.4-0.2-11.8-0.2c-0.4,0-0.5,0.2-0.5,0.7v6.6c0,7.5,0,13.6,0.4,16.9c0.2,2.3,0.7,4,3,4.3c1.1,0.2,2.8,0.3,3.5,0.3
			c0.5,0,0.6,0.2,0.6,0.5c0,0.4-0.4,0.6-1.2,0.6c-4.3,0-9.2-0.2-9.6-0.2c-0.4,0-5.3,0.2-7.6,0.2c-0.9,0-1.2-0.2-1.2-0.6
			c0-0.2,0.2-0.5,0.6-0.5c0.7,0,1.6-0.2,2.3-0.3c1.6-0.3,1.9-2,2.3-4.3c0.4-3.3,0.4-9.4,0.4-16.9V105.7z"/>
		<path class="st325" d="M211.4,105.7c0-12.2,0-14.3-0.2-16.8c-0.2-2.7-0.8-3.9-3.4-4.4c-0.6-0.2-1.9-0.2-2.7-0.2
			c-0.3,0-0.6-0.2-0.6-0.5c0-0.5,0.4-0.6,1.2-0.6c1.8,0,3.9,0,5.6,0.1l3.2,0.2c0.5,0,16.1,0,17.9-0.1c1.5-0.1,2.7-0.2,3.4-0.4
			c0.4-0.1,0.7-0.4,1.1-0.4c0.2,0,0.3,0.3,0.3,0.7c0,0.5-0.4,1.5-0.6,3.7c-0.1,0.8-0.2,4.2-0.4,5.1c-0.1,0.4-0.2,0.9-0.5,0.9
			c-0.5,0-0.6-0.4-0.6-1c0-0.5-0.1-1.9-0.5-2.8c-0.5-1.2-1.3-2.2-5.5-2.7c-1.3-0.2-9.8-0.2-10.7-0.2c-0.3,0-0.5,0.2-0.5,0.8v21.5
			c0,0.5,0.1,0.8,0.5,0.8c1,0,10.6,0,12.4-0.2c1.9-0.2,3-0.3,3.7-1.1c0.5-0.6,0.9-1,1.2-1c0.2,0,0.4,0.2,0.4,0.6
			c0,0.5-0.4,1.8-0.6,4.4c-0.2,1.6-0.3,4.4-0.3,5c0,0.6,0,1.5-0.5,1.5c-0.4,0-0.5-0.3-0.5-0.7c0-0.8,0-1.6-0.3-2.6
			c-0.3-1.1-1-2.4-4.1-2.7c-2.1-0.2-9.8-0.4-11.2-0.4c-0.4,0-0.5,0.2-0.5,0.5v6.9c0,2.7-0.1,11.7,0,13.3c0.2,5.4,1.4,6.4,9,6.4
			c2,0,5.5,0,7.5-0.9c2-0.9,3-2.4,3.5-5.6c0.2-0.9,0.3-1.2,0.7-1.2c0.5,0,0.5,0.6,0.5,1.2c0,0.6-0.6,5.9-1,7.6c-0.5,2-1.2,2-4.2,2
			c-5.8,0-10.1-0.2-13.2-0.2c-3-0.2-4.9-0.2-6.1-0.2c-0.2,0-1.5,0-3.1,0.1c-1.6,0-3.4,0.2-4.5,0.2c-0.9,0-1.2-0.2-1.2-0.6
			c0-0.2,0.2-0.5,0.6-0.5c0.7,0,1.6-0.2,2.3-0.3c1.6-0.3,1.9-2,2.3-4.3c0.4-3.3,0.4-9.4,0.4-16.9V105.7z"/>
		<path class="st325" d="M254,141.1c-1.1-0.5-1.2-0.9-1.2-3c0-3.9,0.3-7,0.4-8.3c0.1-0.9,0.2-1.2,0.6-1.2c0.5,0,0.5,0.2,0.5,0.9
			c0,0.7,0,1.8,0.2,2.9c1.2,5.8,6.3,8,11.5,8c7.5,0,11.2-5.4,11.2-10.4c0-5.4-2.3-8.5-9-14l-3.5-2.9c-8.3-6.8-10.1-11.6-10.1-16.9
			c0-8.3,6.2-14,16.1-14c3,0,5.3,0.3,7.3,0.8c1.5,0.3,2.1,0.4,2.7,0.4s0.8,0.2,0.8,0.5c0,0.4-0.3,3-0.3,8.3c0,1.2-0.2,1.8-0.5,1.8
			c-0.5,0-0.5-0.4-0.6-1c-0.1-0.9-0.5-3-1-3.9c-0.5-0.9-2.6-4.1-9.7-4.1c-5.4,0-9.6,3.4-9.6,9c0,4.4,2,7.3,9.5,13.1l2.2,1.7
			c9.2,7.3,11.4,12.1,11.4,18.3c0,3.2-1.2,9.1-6.6,12.9c-3.4,2.3-7.6,3.3-11.8,3.3C260.8,143.2,257.2,142.6,254,141.1z"/>
		<path class="st325" d="M320.1,119.5c0,7.5,0,13.6,0.4,16.9c0.2,2.3,0.7,4,3,4.3c1.1,0.2,2.8,0.3,3.5,0.3c0.5,0,0.6,0.2,0.6,0.5
			c0,0.4-0.4,0.6-1.2,0.6c-4.3,0-9.2-0.2-9.6-0.2s-5.3,0.2-7.6,0.2c-0.9,0-1.2-0.2-1.2-0.6c0-0.2,0.2-0.5,0.6-0.5
			c0.7,0,1.6-0.2,2.3-0.3c1.6-0.3,1.9-2,2.3-4.3c0.4-3.3,0.4-9.4,0.4-16.9v-33L302,86.6c-4.8,0.1-6.7,0.6-8,2.5
			c-0.9,1.3-1.1,1.9-1.3,2.4c-0.2,0.6-0.5,0.8-0.8,0.8c-0.2,0-0.4-0.2-0.4-0.7c0-0.8,1.6-7.5,1.7-8.1c0.2-0.5,0.5-1.5,0.8-1.5
			c0.5,0,1.3,0.8,3.4,0.9c2.3,0.2,5.2,0.4,6.2,0.4h29.2c2.5,0,4.3-0.2,5.5-0.4c1.2-0.2,1.9-0.4,2.2-0.4c0.4,0,0.4,0.5,0.4,0.9
			c0,2.3-0.2,7.7-0.2,8.6c0,0.7-0.2,1-0.5,1c-0.4,0-0.5-0.2-0.6-1.3l-0.1-0.9c-0.2-2.3-2.1-4.1-9.6-4.3l-9.8-0.2V119.5z"/>
		<path class="st325" d="M363.9,119.5c0,7.5,0,13.6,0.4,16.9c0.2,2.3,0.7,4,3,4.3c1.1,0.2,2.8,0.3,3.5,0.3c0.5,0,0.6,0.2,0.6,0.5
			c0,0.4-0.4,0.6-1.2,0.6c-4.3,0-9.2-0.2-9.6-0.2c-0.4,0-5.3,0.2-7.6,0.2c-0.9,0-1.2-0.2-1.2-0.6c0-0.2,0.2-0.5,0.6-0.5
			c0.7,0,1.6-0.2,2.3-0.3c1.6-0.3,1.9-2,2.3-4.3c0.4-3.3,0.4-9.4,0.4-16.9v-13.7c0-12.2,0-14.3-0.2-16.8c-0.2-2.7-0.9-4-2.7-4.4
			c-0.9-0.2-1.9-0.3-2.4-0.3c-0.3,0-0.6-0.2-0.6-0.5c0-0.5,0.4-0.6,1.2-0.6c2.6,0,7.5,0.2,7.9,0.2c0.4,0,5.3-0.2,7.6-0.2
			c0.9,0,1.2,0.2,1.2,0.6c0,0.3-0.3,0.5-0.6,0.5c-0.5,0-1,0.1-1.9,0.2c-2.1,0.4-2.7,1.7-2.9,4.4c-0.2,2.5-0.2,4.7-0.2,16.8V119.5z"
			/>
		<path class="st325" d="M408.5,132.6c4.5-10.4,15-37.7,16.7-43.3c0.4-1.2,0.7-2.3,0.7-3c0-0.6-0.2-1.4-1-1.8
			c-0.9-0.3-2.1-0.3-3-0.3c-0.5,0-0.9-0.1-0.9-0.5c0-0.5,0.5-0.6,1.7-0.6c3.1,0,6.7,0.2,7.6,0.2c0.5,0,3.8-0.2,6.1-0.2
			c0.9,0,1.3,0.2,1.3,0.5c0,0.4-0.3,0.5-0.9,0.5c-0.5,0-2.3,0-3.7,0.9c-1,0.7-2.2,2-4.3,7.3c-0.9,2.2-4.8,11.5-8.7,21.1
			c-4.8,11.4-8.3,19.8-10.1,23.6c-2.2,4.7-2.5,5.9-3.3,5.9c-0.9,0-1.3-1.1-2.8-4.8l-19.1-47.8c-1.7-4.4-2.9-5.2-5.6-6
			c-1.2-0.3-2.5-0.3-3-0.3c-0.5,0-0.6-0.2-0.6-0.5c0-0.5,0.8-0.5,2-0.5c3.7,0,8.2,0.2,9.1,0.2c0.8,0,4.3-0.2,7.3-0.2
			c1.4,0,2.1,0.2,2.1,0.5c0,0.4-0.2,0.5-0.8,0.5c-0.9,0-2.3,0.1-3,0.4c-0.9,0.4-1,1-1,1.6c0,1,0.9,3.4,2.1,6.5L408.5,132.6z"/>
		<path class="st325" d="M454.9,85.1c0.9-2.6,1.2-3,1.7-3s0.8,0.4,1.7,2.8c1.2,3,13.4,35.2,18.2,47c2.8,6.9,5.1,8.2,6.7,8.7
			c1.2,0.4,2.3,0.5,3.1,0.5c0.5,0,0.8,0.1,0.8,0.5c0,0.5-0.7,0.6-1.6,0.6c-1.2,0-6.9,0-12.2-0.2c-1.5-0.1-2.3-0.1-2.3-0.5
			c0-0.3,0.2-0.5,0.5-0.5c0.5-0.2,0.9-0.9,0.5-2.1l-7.3-19.2c-0.2-0.3-0.3-0.5-0.7-0.5h-16.8c-0.4,0-0.6,0.2-0.8,0.6l-4.7,13.8
			c-0.7,1.9-1.1,3.8-1.1,5.2c0,1.6,1.6,2.3,3,2.3h0.8c0.5,0,0.8,0.2,0.8,0.5c0,0.5-0.5,0.6-1.2,0.6c-1.9,0-5.2-0.2-6.1-0.2
			c-0.9,0-5.1,0.2-8.8,0.2c-1,0-1.5-0.2-1.5-0.6c0-0.3,0.3-0.5,0.7-0.5c0.5,0,1.6-0.1,2.3-0.2c3.6-0.5,5.1-3.4,6.5-7.3L454.9,85.1z
			 M463,116.3c0.4,0,0.4-0.2,0.3-0.5l-7.4-21.1c-0.4-1.2-0.8-1.2-1.2,0l-6.9,21.1c-0.2,0.4,0,0.5,0.2,0.5H463z"/>
		<path class="st325" d="M504.8,119.6c0,11.5,0.3,16.5,1.7,17.9c1.2,1.2,3.3,1.8,9.4,1.8c4.1,0,7.6-0.1,9.4-2.3c1-1.2,1.8-3.2,2-4.7
			c0.1-0.6,0.2-1,0.7-1c0.4,0,0.5,0.3,0.5,1.2c0,0.9-0.5,5.5-1.2,7.8c-0.5,1.8-0.8,2.1-4.9,2.1c-5.6,0-9.7-0.2-12.9-0.2
			c-3.3-0.2-5.7-0.2-8-0.2c-0.3,0-1.6,0.1-3.2,0.1c-1.6,0.1-3.3,0.2-4.4,0.2c-0.9,0-1.2-0.2-1.2-0.6c0-0.2,0.2-0.5,0.6-0.5
			c0.7,0,1.6-0.2,2.3-0.3c1.6-0.3,1.9-2,2.3-4.3c0.4-3.3,0.4-9.4,0.4-16.9v-13.7c0-12.2,0-14.3-0.2-16.8c-0.2-2.7-0.8-3.9-3.4-4.4
			c-0.6-0.2-1.9-0.2-2.7-0.2c-0.3,0-0.6-0.2-0.6-0.5c0-0.5,0.4-0.6,1.2-0.6c3.5,0,8.4,0.2,8.8,0.2c0.4,0,6.1-0.2,8.4-0.2
			c0.9,0,1.2,0.2,1.2,0.6c0,0.3-0.3,0.5-0.6,0.5c-0.5,0-1.6,0.1-2.6,0.2c-2.3,0.4-2.9,1.7-3,4.4c-0.2,2.5-0.2,4.7-0.2,16.8V119.6z"
			/>
	</g>
</g>
<g id="Слой_14" class="st0">
</g>
</svg>
