<?xml version="1.0" encoding="utf-8"?>
<!-- Generator: Adobe Illustrator 22.0.1, SVG Export Plug-In . SVG Version: 6.00 Build 0)  -->
<svg version="1.1" xmlns="http://www.w3.org/2000/svg" xmlns:xlink="http://www.w3.org/1999/xlink" x="0px" y="0px"
	 viewBox="0 0 949.9 160.2" style="enable-background:new 0 0 949.9 160.2;" xml:space="preserve">
<style type="text/css">
	.st0{display:none;}
	.st1{display:inline;}
	.st2{fill:#2F0E35;}
	.st3{fill:url(#);}
	.st4{fill:#34134C;}
	.st5{opacity:0.4;fill:url(#);}
	.st6{display:inline;opacity:0.39;}
	.st7{fill-rule:evenodd;clip-rule:evenodd;fill:#E0DAFF;}
	.st8{display:inline;fill:none;stroke:#DADADA;stroke-width:221;stroke-miterlimit:10;}
	.st9{fill:url(#SVGID_1_);}
	.st10{opacity:0.74;fill:url(#SVGID_2_);}
	.st11{fill:url(#SVGID_3_);}
	.st12{opacity:0.74;fill:url(#SVGID_4_);}
	.st13{fill:url(#SVGID_5_);}
	.st14{opacity:0.74;fill:url(#SVGID_6_);}
	.st15{fill-rule:evenodd;clip-rule:evenodd;fill:#FFDE00;}
	.st16{opacity:0.85;}
	.st17{fill:none;stroke:#000000;stroke-width:106;stroke-miterlimit:10;}
	.st18{fill:none;stroke:#FFC500;stroke-width:106;stroke-miterlimit:10;}
	.st19{fill-rule:evenodd;clip-rule:evenodd;fill:#FFFB04;}
	.st20{fill-rule:evenodd;clip-rule:evenodd;fill:#FFC500;}
	.st21{clip-path:url(#SVGID_8_);}
	.st22{fill-rule:evenodd;clip-rule:evenodd;fill:#1D1D1B;}
	.st23{fill:#96C11E;}
	.st24{fill:#5EB34B;}
	.st25{fill:#80BB28;}
	.st26{fill:#6CB754;}
	.st27{fill:#5CB130;}
	.st28{fill:#3DA835;}
	.st29{fill:#77B62A;}
	.st30{fill:#9BC11C;}
	.st31{fill:#8CB724;}
	.st32{fill:#A5C715;}
	.st33{fill:#ACC90F;}
	.st34{fill:#B7CD04;}
	.st35{fill:#8FBF27;}
	.st36{fill:#6DB52E;}
	.st37{fill:#BFD000;}
	.st38{fill:#B2CB0F;}
	.st39{fill:#9EC420;}
	.st40{fill:#A1BE1B;}
	.st41{fill:#C3D200;}
	.st42{fill:#CCD500;}
	.st43{fill:#DBDA00;}
	.st44{fill:#C6D300;}
	.st45{fill:#D5D900;}
	.st46{fill:#E1DE00;}
	.st47{fill:#BBCF03;}
	.st48{fill:#F2E400;}
	.st49{fill:#E3DD00;}
	.st50{fill:#CED600;}
	.st51{fill:#F6E42D;}
	.st52{fill:#E7E000;}
	.st53{fill:#68AB2F;}
	.st54{fill:#FAEA41;}
	.st55{fill:#73B844;}
	.st56{fill:#BCCF17;}
	.st57{fill:#B2C20F;}
	.st58{fill:#C9C300;}
	.st59{fill:#B8C00C;}
	.st60{fill:#D2C800;}
	.st61{fill:#ACC313;}
	.st62{fill:#DCDC00;}
	.st63{fill:#EDE300;}
	.st64{fill:#F9E800;}
	.st65{fill:#FCE900;}
	.st66{fill:#C3DAD1;}
	.st67{fill:#D1D93C;}
	.st68{fill:#C0D455;}
	.st69{fill:#B8CB01;}
	.st70{fill:#C7CF00;}
	.st71{fill:#C2D000;}
	.st72{fill:#D5D400;}
	.st73{fill:#DDD500;}
	.st74{fill:#FDD600;}
	.st75{fill:#DFBC00;}
	.st76{fill:#F2E000;}
	.st77{fill:#E7DD00;}
	.st78{fill:#EDDC00;}
	.st79{fill:#FFCD00;}
	.st80{fill:#C1C700;}
	.st81{fill:#C5D31B;}
	.st82{fill:#DAD100;}
	.st83{fill:#E6C800;}
	.st84{fill:#F5D700;}
	.st85{fill:#F9D600;}
	.st86{fill:#F7DD00;}
	.st87{fill:#CFD70A;}
	.st88{fill:#E2E148;}
	.st89{fill:#DCCA00;}
	.st90{fill:#B8CF3C;}
	.st91{fill:#AEB817;}
	.st92{fill:#FADE00;}
	.st93{fill:#FFD600;}
	.st94{fill:#FFDD00;}
	.st95{fill:#FAC500;}
	.st96{fill:#EEC800;}
	.st97{fill:#E4D500;}
	.st98{fill:#D2DC63;}
	.st99{fill:#FFE900;}
	.st100{fill:#FFE500;}
	.st101{fill:#DEDD1C;}
	.st102{fill:#F7E300;}
	.st103{fill:#F8E800;}
	.st104{fill:#A0C85D;}
	.st105{fill:#B6CD19;}
	.st106{fill:#C3D201;}
	.st107{fill:#F7E700;}
	.st108{fill:#FAE400;}
	.st109{fill:#FFE400;}
	.st110{fill:#FFDE00;}
	.st111{fill:#C11EAE;}
	.st112{fill:#B34B66;}
	.st113{fill:#BB2893;}
	.st114{fill:#B75474;}
	.st115{fill:#B13068;}
	.st116{fill:#A83846;}
	.st117{fill:#B62A88;}
	.st118{fill:#C11CB4;}
	.st119{fill:#B724A1;}
	.st120{fill:#C715C1;}
	.st121{fill:#C80FC9;}
	.st122{fill:#C104CD;}
	.st123{fill:#BF27A5;}
	.st124{fill:#B52E7C;}
	.st125{fill:#BD00D0;}
	.st126{fill:#C50FCB;}
	.st127{fill:#C420B7;}
	.st128{fill:#BE1BBB;}
	.st129{fill:#BC00D2;}
	.st130{fill:#B800D5;}
	.st131{fill:#AF00DB;}
	.st132{fill:#BB00D3;}
	.st133{fill:#B600D9;}
	.st134{fill:#AD00E1;}
	.st135{fill:#C003CF;}
	.st136{fill:#9600F2;}
	.st137{fill:#A500E3;}
	.st138{fill:#B800D6;}
	.st139{fill:#9A2DF6;}
	.st140{fill:#A500E7;}
	.st141{fill:#AB2F76;}
	.st142{fill:#A641FA;}
	.st143{fill:#B8447F;}
	.st144{fill:#C317CF;}
	.st145{fill:#B30FC2;}
	.st146{fill:#9000C9;}
	.st147{fill:#A80CC0;}
	.st148{fill:#8900D2;}
	.st149{fill:#BD13C3;}
	.st150{fill:#B400DC;}
	.st151{fill:#9F00ED;}
	.st152{fill:#9100F9;}
	.st153{fill:#9000FC;}
	.st154{fill:#DAC8C3;}
	.st155{fill:#C53CD9;}
	.st156{fill:#D355D4;}
	.st157{fill:#BB01CB;}
	.st158{fill:#B200CF;}
	.st159{fill:#BA00D0;}
	.st160{fill:#AA00D5;}
	.st161{fill:#9900DD;}
	.st162{fill:#6800FD;}
	.st163{fill:#5B00DF;}
	.st164{fill:#8A00F2;}
	.st165{fill:#9B00E7;}
	.st166{fill:#8900ED;}
	.st167{fill:#5400FF;}
	.st168{fill:#A900C7;}
	.st169{fill:#C11BD3;}
	.st170{fill:#9300DA;}
	.st171{fill:#6A00E6;}
	.st172{fill:#7400F5;}
	.st173{fill:#6D00F9;}
	.st174{fill:#7E00F7;}
	.st175{fill:#BA0AD7;}
	.st176{fill:#C248E2;}
	.st177{fill:#7A00DC;}
	.st178{fill:#CE3CCF;}
	.st179{fill:#A617B8;}
	.st180{fill:#7C00FA;}
	.st181{fill:#6600FF;}
	.st182{fill:#7400FF;}
	.st183{fill:#3F00FA;}
	.st184{fill:#5F00EE;}
	.st185{fill:#8700E4;}
	.st186{fill:#D163DC;}
	.st187{fill:#8C00FF;}
	.st188{fill:#8400FF;}
	.st189{fill:#B71CDE;}
	.st190{fill:#8A00F7;}
	.st191{fill:#9400F8;}
	.st192{fill:#C85DAE;}
	.st193{fill:#C619CD;}
	.st194{fill:#BD01D2;}
	.st195{fill:#9300F7;}
	.st196{fill:#8800FA;}
	.st197{fill:#8200FF;}
	.st198{fill:#7600FF;}
	.st199{fill-rule:evenodd;clip-rule:evenodd;fill:#FFED00;}
	.st200{fill:#B66A8E;}
	.st201{fill:#AC4D60;}
	.st202{fill:#77476C;}
	.st203{fill:#7A73B3;}
	.st204{fill:#734831;}
	.st205{fill:#7F3B33;}
	.st206{fill:#755086;}
	.st207{fill:#885C78;}
	.st208{fill:#BC3924;}
	.st209{fill:#944046;}
	.st210{fill:#8F3E2F;}
	.st211{fill:#7E371F;}
	.st212{fill:#8E351E;}
	.st213{fill:#603B35;}
	.st214{fill:#9B3A29;}
	.st215{fill:#703517;}
	.st216{fill:#5F3625;}
	.st217{fill:#503F6A;}
	.st218{fill:#6E3722;}
	.st219{fill:#6F3B35;}
	.st220{fill:#7D2811;}
	.st221{fill:#EA5431;}
	.st222{fill:#7D291D;}
	.st223{fill:#6D2C20;}
	.st224{fill:#51362A;}
	.st225{fill:#564255;}
	.st226{fill:#982F16;}
	.st227{fill:#8D281B;}
	.st228{fill:#8D3214;}
	.st229{fill:#AC3627;}
	.st230{fill:#EB5E1B;}
	.st231{fill:#AC3F20;}
	.st232{fill:#8E2514;}
	.st233{fill:#D13A17;}
	.st234{fill:#41362B;}
	.st235{fill:#4B2E34;}
	.st236{fill:#5E2E22;}
	.st237{fill:#D14140;}
	.st238{fill:#7E3313;}
	.st239{fill:#E64217;}
	.st240{fill:#AE2418;}
	.st241{fill:#4F3A4B;}
	.st242{fill:#4E2E26;}
	.st243{fill:#B52518;}
	.st244{fill:#A72417;}
	.st245{fill:#4D3836;}
	.st246{fill:#AB2F17;}
	.st247{fill:#E84B19;}
	.st248{fill:#5A2E2B;}
	.st249{fill:#3C3346;}
	.st250{fill:#BC2318;}
	.st251{fill:#3E2D37;}
	.st252{fill:#393354;}
	.st253{fill:#C72218;}
	.st254{fill:#9E2418;}
	.st255{fill:#9D3017;}
	.st256{fill:#6D2A16;}
	.st257{fill:#982415;}
	.st258{fill:#B92E18;}
	.st259{fill:#C82A18;}
	.st260{fill:#C83625;}
	.st261{fill:#5F2D1A;}
	.st262{fill:#E22D13;}
	.st263{fill:#E43712;}
	.st264{fill:#D73628;}
	.st265{fill:#402C2A;}
	.st266{fill:#D62C16;}
	.st267{fill:#A71C17;}
	.st268{fill:#754350;}
	.st269{fill:#482C1B;}
	.st270{fill:#3F3538;}
	.st271{fill:#AD1C18;}
	.st272{fill:#303247;}
	.st273{fill:#3A2A43;}
	.st274{fill:#30327D;}
	.st275{fill:#6856A0;}
	.st276{fill:#2E3052;}
	.st277{fill:#6F99D0;}
	.st278{fill:#585996;}
	.st279{fill:#5165AD;}
	.st280{fill:#4F80C1;}
	.st281{fill:#484A9A;}
	.st282{fill:#31353A;}
	.st283{fill:#BC1B18;}
	.st284{fill:#38396D;}
	.st285{fill:#3F463A;}
	.st286{fill:#323063;}
	.st287{fill:#383A8C;}
	.st288{fill:#302A45;}
	.st289{fill:#372951;}
	.st290{fill:#49377E;}
	.st291{fill:#E54930;}
	.st292{fill:#4F4587;}
	.st293{fill:#6E2A38;}
	.st294{fill:#CE5335;}
	.st295{fill:#575C5A;}
	.st296{fill:#E13D28;}
	.st297{fill:#845D50;}
	.st298{fill:#312C3A;}
	.st299{fill:#E73E2A;}
	.st300{fill:#E73E18;}
	.st301{fill:#F8DFAB;}
	.st302{fill:#B41D18;}
	.st303{fill:#2E294F;}
	.st304{fill:#616074;}
	.st305{fill:#922F2B;}
	.st306{fill:#818A87;}
	.st307{fill:url(#SVGID_9_);}
	.st308{opacity:0.74;fill:url(#SVGID_10_);}
	.st309{fill:url(#SVGID_11_);}
	.st310{opacity:0.74;fill:url(#SVGID_12_);}
	.st311{fill:url(#SVGID_13_);}
	.st312{opacity:0.74;fill:url(#SVGID_14_);}
	.st313{clip-path:url(#SVGID_16_);}
	.st314{fill:#BFD00F;}
	.st315{fill:#409B36;}
	.st316{fill:#75AC2C;}
	.st317{fill:url(#SVGID_17_);}
	.st318{fill:url(#SVGID_18_);}
	.st319{fill:url(#SVGID_19_);}
	.st320{fill:url(#SVGID_20_);}
	.st321{fill:url(#SVGID_21_);}
	.st322{fill:url(#SVGID_22_);}
	.st323{fill:url(#SVGID_23_);}
	.st324{fill:#FCEA10;}
	.st325{fill:#FFFFFF;}
	.st326{fill:url(#SVGID_24_);}
	.st327{fill-rule:evenodd;clip-rule:evenodd;fill:#FFFFFF;}
	.st328{fill:#FFFFFF;stroke:url(#SVGID_25_);stroke-width:10;stroke-miterlimit:10;}
	.st329{fill:#B11625;}
	.st330{fill-rule:evenodd;clip-rule:evenodd;fill:#6F1444;}
	.st331{fill:#6F1444;}
	.st332{fill:url(#SVGID_26_);}
	.st333{fill:#7D2A31;}
	.st334{fill:#E9D990;}
	.st335{fill:#FFDF94;}
	.st336{fill:#E6B700;}
	.st337{fill:#FCD468;}
	.st338{fill:#EAC43D;}
	.st339{fill:#DAB506;}
	.st340{fill:#DCBE33;}
	.st341{fill:#D8B200;}
	.st342{fill:#E3BC1F;}
	.st343{fill:#D1B000;}
	.st344{fill:#EACE64;}
	.st345{fill:#DFB400;}
	.st346{fill:#F4BA02;}
	.st347{fill:#F9CA44;}
	.st348{fill:#F1B50D;}
	.st349{fill:#CEB106;}
	.st350{fill:#CBB10F;}
	.st351{fill:#D4B100;}
	.st352{fill:#C6B218;}
	.st353{fill:#C0B323;}
	.st354{fill:#E4B500;}
	.st355{fill:#DAC75D;}
	.st356{fill:#D5BA29;}
	.st357{fill:#DDD18A;}
	.st358{fill:#4605BE;}
	.st359{fill:#5104AE;}
	.st360{fill:#4E04B0;}
	.st361{fill:#6D33AE;}
	.st362{fill:#5404A7;}
	.st363{fill:#5304A9;}
	.st364{fill:#5204AB;}
	.st365{fill:#5807A4;}
	.st366{fill:#5404A8;}
	.st367{fill:#4205C2;}
	.st368{fill:#5F10A1;}
	.st369{fill:#5706A6;}
	.st370{fill:#4C04AB;}
	.st371{fill:#4004A1;}
	.st372{fill:#4404B1;}
	.st373{fill:#1F05CB;}
	.st374{fill:#5D10A3;}
	.st375{fill:#6A1D9D;}
	.st376{fill:#5304A7;}
	.st377{fill:#1B04B3;}
	.st378{fill:#3B05C2;}
	.st379{fill:#4405B9;}
	.st380{fill:#3C05BE;}
	.st381{fill:#4904B6;}
	.st382{fill:#5004B0;}
	.st383{fill:#0F05CD;}
	.st384{fill:#6D1B9B;}
	.st385{fill:#822492;}
	.st386{fill:#6314A0;}
	.st387{fill:#671A9B;}
	.st388{fill:#752299;}
	.st389{fill:#4B04A0;}
	.st390{fill:#5405A3;}
	.st391{fill:#4F04A6;}
	.st392{fill:#6019A9;}
	.st393{fill:#55109C;}
	.st394{fill:#4104AF;}
	.st395{fill:#2505B8;}
	.st396{fill:#2A05C4;}
	.st397{fill:#2305C8;}
	.st398{fill:#3105C6;}
	.st399{fill:#5E38C8;}
	.st400{fill:#3E05CA;}
	.st401{fill:#4005C8;}
	.st402{fill:#4D04B4;}
	.st403{fill:#5204AC;}
	.st404{fill:#4905B9;}
	.st405{fill:#560CAC;}
	.st406{fill:#703DB5;}
	.st407{fill:#5B139C;}
	.st408{fill:#4F0D9A;}
	.st409{fill:#3C04A8;}
	.st410{fill:#3304B0;}
	.st411{fill:#7D47AA;}
	.st412{fill:#7133A6;}
	.st413{fill:#521694;}
	.st414{fill:#2F05C8;}
	.st415{fill:#1D05CD;}
	.st416{fill:#2805CD;}
	.st417{fill:#0510C8;}
	.st418{fill:#1B05BF;}
	.st419{fill:#3B05B7;}
	.st420{fill:#7E2396;}
	.st421{fill:#5F16A6;}
	.st422{fill:#8052B0;}
	.st423{fill:#3B05CD;}
	.st424{fill:#3405CD;}
	.st425{fill:#5128C5;}
	.st426{fill:#5B1AB2;}
	.st427{fill:#601998;}
	.st428{fill:#3A05C6;}
	.st429{clip-path:url(#SVGID_28_);}
	.st430{clip-path:url(#SVGID_30_);}
	.st431{clip-path:url(#SVGID_32_);}
	.st432{clip-path:url(#SVGID_34_);}
</style>
<g id="Слой_7" class="st0">
</g>
<g id="Слой_4" class="st0">
</g>
<g id="Слой_3">
	<g id="Слой_2">
	</g>
</g>
<g id="Слой_8">
</g>
<g id="Слой_1">
</g>
<g id="Слой_5__x28_копия_x29_" class="st0">
</g>
<g id="Слой_5" class="st0">
</g>
<g id="Слой_11">
</g>
<g id="Слой_10" class="st0">
</g>
<g id="Слой_6">
</g>
<g id="txt">
</g>
<g id="Слой_13">
	<g>
		<g>
			<path class="st324" d="M20.6,62.1c0-31.1,0-36.8-0.4-43.3c-0.4-6.9-2-10.2-8.8-11.6c-1.6-0.4-5.1-0.6-8-0.6C1.2,6.5,0,6.1,0,4.7
				s1.4-1.8,4.5-1.8c10.8,0,23.7,0.6,27.8,0.6c10,0,18-0.6,24.9-0.6c37,0,43.5,19.8,43.5,30.7c0,16.8-9.6,26.8-20.8,35.8
				c16.8,5.7,37.2,20.2,37.2,44.1c0,21.9-17,44.6-54.6,44.6c-2.5,0-8.4-0.4-14.3-0.6c-6.1-0.4-12.3-0.6-15.3-0.6
				c-2.2,0-6.7,0-11.6,0.2c-4.7,0-10,0.4-14.1,0.4c-2.7,0-4.1-0.6-4.1-2c0-1,0.8-1.6,3.3-1.6c3.1,0,5.5-0.4,7.4-0.8
				c4.1-0.8,5.1-5.3,5.9-11.2c1-8.6,1-24.7,1-43.5V62.1z M45.2,65.6c0,1.6,0.6,2,1.4,2.2c1.8,0.4,4.9,0.6,9.6,0.6
				c6.7,0,11.2-0.8,14.7-3.9c5.3-4.3,8.4-11.6,8.4-21.7c0-13.7-8-31.7-25.5-31.7c-2.9,0-4.7,0-6.7,0.4c-1.4,0.4-1.8,1.2-1.8,3.5
				V65.6z M72.1,82c-4.3-3.1-9-4.5-17-4.9c-3.7-0.2-5.7-0.2-8.8-0.2c-0.8,0-1.2,0.4-1.2,1.4v48.4c0,13.5,0.6,17,7.2,19.6
				c5.5,2.2,10.2,2.5,14.9,2.5c9.2,0,24.7-4.9,24.7-26.2C92,110,87.7,92.8,72.1,82z"/>
			<path class="st324" d="M143.7,62.1c0-31.1,0-36.8-0.4-43.3c-0.4-6.9-2-10.2-8.8-11.6c-1.6-0.4-5.1-0.6-8-0.6
				c-2.2,0-3.5-0.4-3.5-1.8s1.4-1.8,4.5-1.8c5.5,0,11.4,0.2,16.6,0.2c5.3,0.2,10,0.4,12.9,0.4c6.5,0,47.2,0,51.1-0.2
				c3.9-0.4,7.2-0.8,8.8-1.2c1-0.2,2.2-0.8,3.3-0.8c1,0,1.2,0.8,1.2,1.8c0,1.4-1,3.9-1.6,13.3c-0.2,2-0.6,11-1,13.5
				c-0.2,1-0.6,2.2-2,2.2s-1.8-1-1.8-2.9c0-1.4-0.2-4.9-1.2-7.4c-1.4-3.7-3.5-6.1-13.7-7.4c-3.5-0.4-24.9-0.8-29-0.8
				c-1,0-1.4,0.6-1.4,2v51.7c0,1.4,0.2,2.2,1.4,2.2c4.5,0,28,0,32.7-0.4c4.9-0.4,8-1,9.8-3.1c1.4-1.6,2.2-2.7,3.3-2.7
				c0.8,0,1.4,0.4,1.4,1.6s-0.8,4.5-1.6,14.9c-0.2,4.1-0.8,12.3-0.8,13.7c0,1.6,0,3.9-1.8,3.9c-1.4,0-1.8-0.8-1.8-1.8
				c-0.2-2-0.2-4.7-0.8-7.4c-1-4.1-3.9-7.2-11.4-8c-3.9-0.4-24.1-0.6-29-0.6c-1,0-1.2,0.8-1.2,2v16.1c0,6.9-0.2,25.8,0,31.7
				c0.4,14.1,3.7,17.2,24.5,17.2c5.3,0,13.9,0,19.2-2.5s7.8-6.7,9.2-15.1c0.4-2.2,0.8-3.1,2.2-3.1c1.6,0,1.6,1.6,1.6,3.7
				c0,4.7-1.6,18.6-2.7,22.7c-1.4,5.3-3.3,5.3-11,5.3c-15.3,0-26.6-0.4-35.4-0.6c-8.8-0.4-15.1-0.6-21.3-0.6c-2.2,0-6.7,0-11.6,0.2
				c-4.7,0-10,0.4-14.1,0.4c-2.7,0-4.1-0.6-4.1-2c0-1,0.8-1.6,3.3-1.6c3.1,0,5.5-0.4,7.4-0.8c4.1-0.8,5.1-5.3,5.9-11.2
				c1-8.6,1-24.7,1-43.5V62.1z"/>
			<path class="st324" d="M286.1,98.1c0,26.2,0,40.3,4.3,43.9c3.5,3.1,8.8,4.5,24.7,4.5c10.8,0,18.8-0.2,23.9-5.7
				c2.5-2.7,4.9-8.4,5.3-12.3c0.2-1.8,0.6-3.1,2.2-3.1c1.4,0,1.6,1,1.6,3.5c0,2.2-1.4,17.6-3.1,23.5c-1.2,4.5-2.2,5.5-12.9,5.5
				c-14.7,0-25.3-0.4-34.5-0.6c-9.2-0.4-16.6-0.6-24.9-0.6c-2.2,0-6.7,0-11.6,0.2c-4.7,0-10,0.4-14.1,0.4c-2.7,0-4.1-0.6-4.1-2
				c0-1,0.8-1.6,3.3-1.6c3.1,0,5.5-0.4,7.4-0.8c4.1-0.8,5.1-5.3,5.9-11.2c1-8.6,1-24.7,1-43.5v-36c0-31.1,0-36.8-0.4-43.3
				c-0.4-6.9-2-10.2-8.8-11.6c-1.6-0.4-4.1-0.6-6.7-0.6c-2.2,0-3.5-0.4-3.5-1.8s1.4-1.8,4.5-1.8c9.6,0,22.5,0.6,28,0.6
				c4.9,0,19.8-0.6,27.8-0.6c2.9,0,4.3,0.4,4.3,1.8s-1.2,1.8-3.7,1.8c-2.2,0-5.5,0.2-8,0.6c-5.5,1-7.2,4.5-7.6,11.6
				c-0.4,6.5-0.4,12.3-0.4,43.3V98.1z"/>
			<path class="st324" d="M351.7,80.1c0-34.9,23.1-80.1,84.4-80.1c50.9,0,82.6,29.6,82.6,76.4s-32.7,83.8-84.6,83.8
				C375.4,160.2,351.7,116.3,351.7,80.1z M490.1,84c0-45.8-26.4-74.2-59.9-74.2c-23.5,0-50.3,13.1-50.3,64
				c0,42.5,23.5,76.2,62.7,76.2C457,150,490.1,143.1,490.1,84z"/>
			<path class="st324" d="M530,22.9c-4.7-11.2-8.2-13.5-15.5-15.5c-3.1-0.8-6.3-0.8-8-0.8c-1.8,0-2.5-0.6-2.5-1.8
				c0-1.6,2.2-1.8,5.3-1.8c10.8,0,22.5,0.6,29.6,0.6c5.1,0,14.9-0.6,25.1-0.6c2.5,0,4.7,0.4,4.7,1.8s-1.2,1.8-3.1,1.8
				c-3.3,0-6.3,0.2-8,1.4c-1.4,1-2,2.5-2,4.3c0,2.7,1.8,8.4,4.7,15.7l35.2,92.8h0.8c8.8-22.5,35.4-88.3,40.3-101.8
				c1-2.7,1.8-5.7,1.8-7.6c0-1.6-0.8-3.3-2.7-3.9c-2.5-0.8-5.5-1-8.2-1c-1.8,0-3.5-0.2-3.5-1.6c0-1.6,1.8-2,5.7-2
				c10.2,0,18.8,0.6,21.5,0.6c3.5,0,13.1-0.6,19.2-0.6c2.7,0,4.3,0.4,4.3,1.8s-1.2,1.8-3.3,1.8c-2,0-6.3,0-10,2.5
				c-2.7,1.8-5.7,5.3-11.2,18.4c-8,19.2-13.5,30.2-24.5,55.4c-13.1,29.8-22.7,52.1-27.2,62.3c-5.3,11.9-6.5,15.1-9.4,15.1
				c-2.7,0-3.9-2.9-7.8-12.5L530,22.9z"/>
			<path class="st324" d="M687.5,62.1c0-31.1,0-36.8-0.4-43.3c-0.4-6.9-2-10.2-8.8-11.6c-1.6-0.4-5.1-0.6-8-0.6
				c-2.2,0-3.5-0.4-3.5-1.8s1.4-1.8,4.5-1.8c5.5,0,11.4,0.2,16.6,0.2c5.3,0.2,10,0.4,12.9,0.4c6.5,0,47.2,0,51.1-0.2
				c3.9-0.4,7.2-0.8,8.8-1.2c1-0.2,2.2-0.8,3.3-0.8c1,0,1.2,0.8,1.2,1.8c0,1.4-1,3.9-1.6,13.3c-0.2,2-0.6,11-1,13.5
				c-0.2,1-0.6,2.2-2,2.2s-1.8-1-1.8-2.9c0-1.4-0.2-4.9-1.2-7.4c-1.4-3.7-3.5-6.1-13.7-7.4c-3.5-0.4-24.9-0.8-29-0.8
				c-1,0-1.4,0.6-1.4,2v51.7c0,1.4,0.2,2.2,1.4,2.2c4.5,0,28,0,32.7-0.4c4.9-0.4,8-1,9.8-3.1c1.4-1.6,2.2-2.7,3.3-2.7
				c0.8,0,1.4,0.4,1.4,1.6s-0.8,4.5-1.6,14.9c-0.2,4.1-0.8,12.3-0.8,13.7c0,1.6,0,3.9-1.8,3.9c-1.4,0-1.8-0.8-1.8-1.8
				c-0.2-2-0.2-4.7-0.8-7.4c-1-4.1-3.9-7.2-11.4-8c-3.9-0.4-24.1-0.6-29-0.6c-1,0-1.2,0.8-1.2,2v16.1c0,6.9-0.2,25.8,0,31.7
				c0.4,14.1,3.7,17.2,24.5,17.2c5.3,0,13.9,0,19.2-2.5c5.3-2.5,7.8-6.7,9.2-15.1c0.4-2.2,0.8-3.1,2.2-3.1c1.6,0,1.6,1.6,1.6,3.7
				c0,4.7-1.6,18.6-2.7,22.7c-1.4,5.3-3.3,5.3-11,5.3c-15.3,0-26.6-0.4-35.4-0.6c-8.8-0.4-15.1-0.6-21.3-0.6c-2.2,0-6.7,0-11.6,0.2
				c-4.7,0-10,0.4-14.1,0.4c-2.7,0-4.1-0.6-4.1-2c0-1,0.8-1.6,3.3-1.6c3.1,0,5.5-0.4,7.4-0.8c4.1-0.8,5.1-5.3,5.9-11.2
				c1-8.6,1-24.7,1-43.5V62.1z"/>
			<path class="st324" d="M803.4,62.1c0-31.1,0-36.8-0.4-43.3c-0.4-6.9-2-10.2-8.8-11.6c-1.6-0.4-5.1-0.6-8-0.6
				c-2.2,0-3.5-0.4-3.5-1.8s1.4-1.8,4.5-1.8c10.8,0,23.7,0.6,29.4,0.6c6.3,0,19.2-0.6,31.5-0.6c25.5,0,59.7,0,82,23.3
				c10.2,10.6,19.8,27.6,19.8,51.9c0,25.8-10.8,45.4-22.3,57c-9.4,9.6-30.7,24.1-68.5,24.1c-7.4,0-15.7-0.6-23.5-1.2
				c-7.8-0.6-14.9-1.2-20-1.2c-2.2,0-6.7,0-11.6,0.2c-4.7,0-10,0.4-14.1,0.4c-2.7,0-4.1-0.6-4.1-2c0-1,0.8-1.6,3.3-1.6
				c3.1,0,5.5-0.4,7.4-0.8c4.1-0.8,5.1-5.3,5.9-11.2c1-8.6,1-24.7,1-43.5V62.1z M829,84.6c0,21.7,0.2,37.4,0.4,41.3
				c0.2,5.1,0.6,13.3,2.2,15.5c2.7,3.9,10.6,8.2,26.8,8.2c20.8,0,34.7-4.1,47-14.7c13.1-11.2,17.2-29.8,17.2-50.9
				c0-26-10.8-42.7-19.6-51.1c-18.8-18-42.1-20.4-58-20.4c-4.1,0-11.6,0.6-13.3,1.4c-1.8,0.8-2.5,1.8-2.5,4.1
				c-0.2,6.9-0.2,24.7-0.2,40.9V84.6z"/>
		</g>
		<g>
			<path class="st325" d="M20.6,62.1c0-31.1,0-36.8-0.4-43.3c-0.4-6.9-2-10.2-8.8-11.6c-1.6-0.4-5.1-0.6-8-0.6C1.2,6.5,0,6.1,0,4.7
				s1.4-1.8,4.5-1.8c10.8,0,23.7,0.6,27.8,0.6c10,0,18-0.6,24.9-0.6c37,0,43.5,19.8,43.5,30.7c0,16.8-9.6,26.8-20.8,35.8
				c16.8,5.7,37.2,20.2,37.2,44.1c0,21.9-17,44.6-54.6,44.6c-2.5,0-8.4-0.4-14.3-0.6c-6.1-0.4-12.3-0.6-15.3-0.6
				c-2.2,0-6.7,0-11.6,0.2c-4.7,0-10,0.4-14.1,0.4c-2.7,0-4.1-0.6-4.1-2c0-1,0.8-1.6,3.3-1.6c3.1,0,5.5-0.4,7.4-0.8
				c4.1-0.8,5.1-5.3,5.9-11.2c1-8.6,1-24.7,1-43.5V62.1z M45.2,65.6c0,1.6,0.6,2,1.4,2.2c1.8,0.4,4.9,0.6,9.6,0.6
				c6.7,0,11.2-0.8,14.7-3.9c5.3-4.3,8.4-11.6,8.4-21.7c0-13.7-8-31.7-25.5-31.7c-2.9,0-4.7,0-6.7,0.4c-1.4,0.4-1.8,1.2-1.8,3.5
				V65.6z M72.1,82c-4.3-3.1-9-4.5-17-4.9c-3.7-0.2-5.7-0.2-8.8-0.2c-0.8,0-1.2,0.4-1.2,1.4v48.4c0,13.5,0.6,17,7.2,19.6
				c5.5,2.2,10.2,2.5,14.9,2.5c9.2,0,24.7-4.9,24.7-26.2C92,110,87.7,92.8,72.1,82z"/>
			<path class="st325" d="M143.7,62.1c0-31.1,0-36.8-0.4-43.3c-0.4-6.9-2-10.2-8.8-11.6c-1.6-0.4-5.1-0.6-8-0.6
				c-2.2,0-3.5-0.4-3.5-1.8s1.4-1.8,4.5-1.8c5.5,0,11.4,0.2,16.6,0.2c5.3,0.2,10,0.4,12.9,0.4c6.5,0,47.2,0,51.1-0.2
				c3.9-0.4,7.2-0.8,8.8-1.2c1-0.2,2.2-0.8,3.3-0.8c1,0,1.2,0.8,1.2,1.8c0,1.4-1,3.9-1.6,13.3c-0.2,2-0.6,11-1,13.5
				c-0.2,1-0.6,2.2-2,2.2s-1.8-1-1.8-2.9c0-1.4-0.2-4.9-1.2-7.4c-1.4-3.7-3.5-6.1-13.7-7.4c-3.5-0.4-24.9-0.8-29-0.8
				c-1,0-1.4,0.6-1.4,2v51.7c0,1.4,0.2,2.2,1.4,2.2c4.5,0,28,0,32.7-0.4c4.9-0.4,8-1,9.8-3.1c1.4-1.6,2.2-2.7,3.3-2.7
				c0.8,0,1.4,0.4,1.4,1.6s-0.8,4.5-1.6,14.9c-0.2,4.1-0.8,12.3-0.8,13.7c0,1.6,0,3.9-1.8,3.9c-1.4,0-1.8-0.8-1.8-1.8
				c-0.2-2-0.2-4.7-0.8-7.4c-1-4.1-3.9-7.2-11.4-8c-3.9-0.4-24.1-0.6-29-0.6c-1,0-1.2,0.8-1.2,2v16.1c0,6.9-0.2,25.8,0,31.7
				c0.4,14.1,3.7,17.2,24.5,17.2c5.3,0,13.9,0,19.2-2.5s7.8-6.7,9.2-15.1c0.4-2.2,0.8-3.1,2.2-3.1c1.6,0,1.6,1.6,1.6,3.7
				c0,4.7-1.6,18.6-2.7,22.7c-1.4,5.3-3.3,5.3-11,5.3c-15.3,0-26.6-0.4-35.4-0.6c-8.8-0.4-15.1-0.6-21.3-0.6c-2.2,0-6.7,0-11.6,0.2
				c-4.7,0-10,0.4-14.1,0.4c-2.7,0-4.1-0.6-4.1-2c0-1,0.8-1.6,3.3-1.6c3.1,0,5.5-0.4,7.4-0.8c4.1-0.8,5.1-5.3,5.9-11.2
				c1-8.6,1-24.7,1-43.5V62.1z"/>
			<path class="st325" d="M286.1,98.1c0,26.2,0,40.3,4.3,43.9c3.5,3.1,8.8,4.5,24.7,4.5c10.8,0,18.8-0.2,23.9-5.7
				c2.5-2.7,4.9-8.4,5.3-12.3c0.2-1.8,0.6-3.1,2.2-3.1c1.4,0,1.6,1,1.6,3.5c0,2.2-1.4,17.6-3.1,23.5c-1.2,4.5-2.2,5.5-12.9,5.5
				c-14.7,0-25.3-0.4-34.5-0.6c-9.2-0.4-16.6-0.6-24.9-0.6c-2.2,0-6.7,0-11.6,0.2c-4.7,0-10,0.4-14.1,0.4c-2.7,0-4.1-0.6-4.1-2
				c0-1,0.8-1.6,3.3-1.6c3.1,0,5.5-0.4,7.4-0.8c4.1-0.8,5.1-5.3,5.9-11.2c1-8.6,1-24.7,1-43.5v-36c0-31.1,0-36.8-0.4-43.3
				c-0.4-6.9-2-10.2-8.8-11.6c-1.6-0.4-4.1-0.6-6.7-0.6c-2.2,0-3.5-0.4-3.5-1.8s1.4-1.8,4.5-1.8c9.6,0,22.5,0.6,28,0.6
				c4.9,0,19.8-0.6,27.8-0.6c2.9,0,4.3,0.4,4.3,1.8s-1.2,1.8-3.7,1.8c-2.2,0-5.5,0.2-8,0.6c-5.5,1-7.2,4.5-7.6,11.6
				c-0.4,6.5-0.4,12.3-0.4,43.3V98.1z"/>
			<path class="st325" d="M351.7,80.1c0-34.9,23.1-80.1,84.4-80.1c50.9,0,82.6,29.6,82.6,76.4s-32.7,83.8-84.6,83.8
				C375.4,160.2,351.7,116.3,351.7,80.1z M490.1,84c0-45.8-26.4-74.2-59.9-74.2c-23.5,0-50.3,13.1-50.3,64
				c0,42.5,23.5,76.2,62.7,76.2C457,150,490.1,143.1,490.1,84z"/>
			<path class="st325" d="M530,22.9c-4.7-11.2-8.2-13.5-15.5-15.5c-3.1-0.8-6.3-0.8-8-0.8c-1.8,0-2.5-0.6-2.5-1.8
				c0-1.6,2.2-1.8,5.3-1.8c10.8,0,22.5,0.6,29.6,0.6c5.1,0,14.9-0.6,25.1-0.6c2.5,0,4.7,0.4,4.7,1.8s-1.2,1.8-3.1,1.8
				c-3.3,0-6.3,0.2-8,1.4c-1.4,1-2,2.5-2,4.3c0,2.7,1.8,8.4,4.7,15.7l35.2,92.8h0.8c8.8-22.5,35.4-88.3,40.3-101.8
				c1-2.7,1.8-5.7,1.8-7.6c0-1.6-0.8-3.3-2.7-3.9c-2.5-0.8-5.5-1-8.2-1c-1.8,0-3.5-0.2-3.5-1.6c0-1.6,1.8-2,5.7-2
				c10.2,0,18.8,0.6,21.5,0.6c3.5,0,13.1-0.6,19.2-0.6c2.7,0,4.3,0.4,4.3,1.8s-1.2,1.8-3.3,1.8c-2,0-6.3,0-10,2.5
				c-2.7,1.8-5.7,5.3-11.2,18.4c-8,19.2-13.5,30.2-24.5,55.4c-13.1,29.8-22.7,52.1-27.2,62.3c-5.3,11.9-6.5,15.1-9.4,15.1
				c-2.7,0-3.9-2.9-7.8-12.5L530,22.9z"/>
			<path class="st325" d="M687.5,62.1c0-31.1,0-36.8-0.4-43.3c-0.4-6.9-2-10.2-8.8-11.6c-1.6-0.4-5.1-0.6-8-0.6
				c-2.2,0-3.5-0.4-3.5-1.8s1.4-1.8,4.5-1.8c5.5,0,11.4,0.2,16.6,0.2c5.3,0.2,10,0.4,12.9,0.4c6.5,0,47.2,0,51.1-0.2
				c3.9-0.4,7.2-0.8,8.8-1.2c1-0.2,2.2-0.8,3.3-0.8c1,0,1.2,0.8,1.2,1.8c0,1.4-1,3.9-1.6,13.3c-0.2,2-0.6,11-1,13.5
				c-0.2,1-0.6,2.2-2,2.2s-1.8-1-1.8-2.9c0-1.4-0.2-4.9-1.2-7.4c-1.4-3.7-3.5-6.1-13.7-7.4c-3.5-0.4-24.9-0.8-29-0.8
				c-1,0-1.4,0.6-1.4,2v51.7c0,1.4,0.2,2.2,1.4,2.2c4.5,0,28,0,32.7-0.4c4.9-0.4,8-1,9.8-3.1c1.4-1.6,2.2-2.7,3.3-2.7
				c0.8,0,1.4,0.4,1.4,1.6s-0.8,4.5-1.6,14.9c-0.2,4.1-0.8,12.3-0.8,13.7c0,1.6,0,3.9-1.8,3.9c-1.4,0-1.8-0.8-1.8-1.8
				c-0.2-2-0.2-4.7-0.8-7.4c-1-4.1-3.9-7.2-11.4-8c-3.9-0.4-24.1-0.6-29-0.6c-1,0-1.2,0.8-1.2,2v16.1c0,6.9-0.2,25.8,0,31.7
				c0.4,14.1,3.7,17.2,24.5,17.2c5.3,0,13.9,0,19.2-2.5c5.3-2.5,7.8-6.7,9.2-15.1c0.4-2.2,0.8-3.1,2.2-3.1c1.6,0,1.6,1.6,1.6,3.7
				c0,4.7-1.6,18.6-2.7,22.7c-1.4,5.3-3.3,5.3-11,5.3c-15.3,0-26.6-0.4-35.4-0.6c-8.8-0.4-15.1-0.6-21.3-0.6c-2.2,0-6.7,0-11.6,0.2
				c-4.7,0-10,0.4-14.1,0.4c-2.7,0-4.1-0.6-4.1-2c0-1,0.8-1.6,3.3-1.6c3.1,0,5.5-0.4,7.4-0.8c4.1-0.8,5.1-5.3,5.9-11.2
				c1-8.6,1-24.7,1-43.5V62.1z"/>
			<path class="st325" d="M803.4,62.1c0-31.1,0-36.8-0.4-43.3c-0.4-6.9-2-10.2-8.8-11.6c-1.6-0.4-5.1-0.6-8-0.6
				c-2.2,0-3.5-0.4-3.5-1.8s1.4-1.8,4.5-1.8c10.8,0,23.7,0.6,29.4,0.6c6.3,0,19.2-0.6,31.5-0.6c25.5,0,59.7,0,82,23.3
				c10.2,10.6,19.8,27.6,19.8,51.9c0,25.8-10.8,45.4-22.3,57c-9.4,9.6-30.7,24.1-68.5,24.1c-7.4,0-15.7-0.6-23.5-1.2
				c-7.8-0.6-14.9-1.2-20-1.2c-2.2,0-6.7,0-11.6,0.2c-4.7,0-10,0.4-14.1,0.4c-2.7,0-4.1-0.6-4.1-2c0-1,0.8-1.6,3.3-1.6
				c3.1,0,5.5-0.4,7.4-0.8c4.1-0.8,5.1-5.3,5.9-11.2c1-8.6,1-24.7,1-43.5V62.1z M829,84.6c0,21.7,0.2,37.4,0.4,41.3
				c0.2,5.1,0.6,13.3,2.2,15.5c2.7,3.9,10.6,8.2,26.8,8.2c20.8,0,34.7-4.1,47-14.7c13.1-11.2,17.2-29.8,17.2-50.9
				c0-26-10.8-42.7-19.6-51.1c-18.8-18-42.1-20.4-58-20.4c-4.1,0-11.6,0.6-13.3,1.4c-1.8,0.8-2.5,1.8-2.5,4.1
				c-0.2,6.9-0.2,24.7-0.2,40.9V84.6z"/>
		</g>
	</g>
</g>
<g id="Слой_14" class="st0">
</g>
</svg>
